<svg xmlns="http://www.w3.org/2000/svg" version="1.1" xmlns:xlink="http://www.w3.org/1999/xlink" xmlns:svgjs="http://svgjs.dev/svgjs" width="1440" height="562" preserveAspectRatio="none" viewBox="0 0 1440 562"><g mask="url(&quot;#SvgjsMask1598&quot;)" fill="none"><rect width="1440" height="562" x="0" y="0" fill="url(&quot;#SvgjsLinearGradient1599&quot;)"></rect><path d="M690.0774513409034 155.91970996149786L571.2088435730033 124.06896250467713 539.3580961161825 242.93757027257726 658.2267038840827 274.788317729398z" fill="rgba(34, 9, 44, 0.35)" class="triangle-float3"></path><path d="M303.494,680.576C351.074,679.391,398.225,666.042,425.474,627.019C457.36,581.356,475.609,521.524,448.549,472.846C420.939,423.178,360.303,406.216,303.494,407.59C249.357,408.9,197.587,432.92,170.105,479.581C142.222,526.923,140.137,587.588,170.518,633.367C198.394,675.372,253.097,681.831,303.494,680.576" fill="rgba(34, 9, 44, 0.35)" class="triangle-float1"></path><path d="M1192.0584899222374-20.11788001854844L1172.1235086772704 167.8276223841289 1324.2052053814248 103.27277212678786z" fill="rgba(34, 9, 44, 0.35)" class="triangle-float2"></path><path d="M679.759,621.121C711.197,621.907,747.83,619.391,762.716,591.689C777.215,564.706,757.209,534.354,740.001,509.013C725.544,487.724,705.387,471.853,679.759,469.524C648.843,466.714,613.808,469.913,597.007,496.016C579.229,523.636,585.566,560.318,603.687,587.714C620.063,612.471,650.085,620.379,679.759,621.121" fill="rgba(34, 9, 44, 0.35)" class="triangle-float2"></path><path d="M1169.323421091784 173.1567781213958L1189.9717786172275 26.2360801678914 1043.051080663723 5.587722642447943 1022.4027231382796 152.50842059595234z" fill="rgba(34, 9, 44, 0.35)" class="triangle-float3"></path><path d="M149.1,212.844C171.092,212.855,188.61,195.853,198.613,176.268C207.694,158.488,205.815,137.983,196.297,120.433C186.243,101.895,170.187,85.264,149.1,84.978C127.628,84.687,109.864,100.242,99.635,119.123C89.918,137.059,90.15,158.179,99.672,176.219C109.931,195.657,127.121,212.833,149.1,212.844" fill="rgba(34, 9, 44, 0.35)" class="triangle-float2"></path><path d="M639.33 225.52 a158.83 158.83 0 1 0 317.66 0 a158.83 158.83 0 1 0 -317.66 0z" fill="rgba(34, 9, 44, 0.35)" class="triangle-float2"></path><path d="M-120.75 279.32 a132.2 132.2 0 1 0 264.4 0 a132.2 132.2 0 1 0 -264.4 0z" fill="rgba(34, 9, 44, 0.35)" class="triangle-float3"></path><path d="M1419.5725148261495 162.41339335175775L1477.8339788839617 136.47371830514754 1409.79373428514 62.05135974173446z" fill="rgba(34, 9, 44, 0.35)" class="triangle-float1"></path><path d="M899.044,315.35C939.835,316.764,979.007,299.14,1001.705,265.218C1027.377,226.851,1041.701,176.889,1018.329,137.078C995.157,97.607,944.804,89.374,899.044,90.351C855.389,91.283,809.056,103.593,788.269,141.992C768.17,179.12,785.283,222.927,808.016,258.503C828.661,290.812,860.725,314.021,899.044,315.35" fill="rgba(34, 9, 44, 0.35)" class="triangle-float2"></path><path d="M1011.4018222294369 177.2833289975045L1062.800842595659 36.06568115922056 870.184174391153 125.88430863128224z" fill="rgba(34, 9, 44, 0.35)" class="triangle-float1"></path><path d="M1226.2827852661453 450.8607472924479L1149.3015582342107 500.8529406606477 1276.274978634345 527.8419743243825z" fill="rgba(34, 9, 44, 0.35)" class="triangle-float2"></path><path d="M1152.148,167.965C1179.875,167.723,1207.877,156.413,1220.882,131.924C1233.274,108.59,1223.235,81.705,1210.144,58.756C1196.893,35.527,1178.889,11.135,1152.148,11.433C1125.715,11.727,1109.645,37.177,1096.347,60.024C1082.931,83.073,1069.058,109.45,1081.305,133.141C1094.256,158.193,1123.947,168.211,1152.148,167.965" fill="rgba(34, 9, 44, 0.35)" class="triangle-float1"></path><path d="M1095.0978412340953-25.081621215094767L1027.583779997928 58.29130103158134 1110.9567022446042 125.80536226774845 1178.4707634807714 42.43244002107234z" fill="rgba(34, 9, 44, 0.35)" class="triangle-float1"></path></g><defs><mask id="SvgjsMask1598"><rect width="1440" height="562" fill="#ffffff"></rect></mask><linearGradient x1="15.24%" y1="139.06%" x2="84.76%" y2="-39.06%" gradientUnits="userSpaceOnUse" id="SvgjsLinearGradient1599"><stop stop-color="rgba(240, 89, 65, 1)" offset="0"></stop><stop stop-color="rgba(190, 49, 68, 1)" offset="1"></stop></linearGradient><style>
                @keyframes float1 {
                    0%{transform: translate(0, 0)}
                    50%{transform: translate(-10px, 0)}
                    100%{transform: translate(0, 0)}
                }

                .triangle-float1 {
                    animation: float1 5s infinite;
                }

                @keyframes float2 {
                    0%{transform: translate(0, 0)}
                    50%{transform: translate(-5px, -5px)}
                    100%{transform: translate(0, 0)}
                }

                .triangle-float2 {
                    animation: float2 4s infinite;
                }

                @keyframes float3 {
                    0%{transform: translate(0, 0)}
                    50%{transform: translate(0, -10px)}
                    100%{transform: translate(0, 0)}
                }

                .triangle-float3 {
                    animation: float3 6s infinite;
                }
            </style></defs></svg>