<?xml version="1.0" encoding="utf-8"?>
<!-- Generator: Adobe Illustrator 25.2.1, SVG Export Plug-In . SVG Version: 6.00 Build 0)  -->
<svg version="1.1" id="Layer_1" xmlns="http://www.w3.org/2000/svg" xmlns:xlink="http://www.w3.org/1999/xlink" x="0px" y="0px"
	 viewBox="0 0 960 560" style="enable-background:new 0 0 960 560;" xml:space="preserve">
<style type="text/css">
	.st0{fill:url(#SVGID_1_);}
</style>
<linearGradient id="SVGID_1_" gradientUnits="userSpaceOnUse" x1="882.8502" y1="132.1307" x2="-59.7509" y2="293.3142">
	<stop  offset="0" style="stop-color:#F05941"/>
	<stop  offset="1" style="stop-color:#872341"/>
</linearGradient>
<path class="st0" d="M7,273.5V144.1h36.3v129.4H7z M144.2,144.1h34.5v129.4h-38.3l-27.4-46c-7.4-12.5-13.3-23.1-17.8-32
	c0.6,17.8,0.9,36.8,0.9,56.9v21.1H61.5V144.1h38.3l27.4,46c6.5,11.1,12.5,21.9,17.8,32.2c-0.6-17.8-0.9-36.8-0.9-57.1V144.1z
	 M295.5,176.5h-62.1v16.9h58.1v30.5h-58.1v49.6H197V144.1h98.5V176.5z M306.4,273.5V144.1h36.3v129.4H306.4z M397.3,241.1h57.2v32.3
	H361V144.1h36.3V241.1z M554.6,144.1v32.4h-38.2v97h-36.3v-97h-38.2v-32.4H554.6z M675.6,260.4c0.2,5.3,1.3,9.7,3.3,13.1h-37.4
	c-1.5-2.8-2.3-7.1-2.5-13.1l-0.5-14.7c-0.2-6.5-1.7-11-4.5-13.4c-2.7-2.4-7.1-3.5-13.2-3.5h-18.9v44.7h-36.3V144.1h63.6
	c16.5,0,28.7,3.6,36.5,10.7c7.8,7.3,11.6,16.5,11.6,27.6c0,6.7-1.7,12.7-5.2,18c-3.5,5.3-8.4,9.4-15,12.4
	c6.5,2.4,11.1,5.9,13.5,10.5c2.5,4.6,3.9,11.2,4.3,19.8L675.6,260.4z M601.9,202.2h21.8c10.8,0,16.2-5,16.2-14.9
	c0-9.9-5.4-14.9-16.2-14.9h-21.8V202.2z M704.1,257.9c-12.5-12.1-18.7-28.5-18.7-49.1c0-20.5,6.2-36.9,18.7-49.2
	c12.6-12.2,29-18.3,49.2-18.3c20.2,0,36.6,6.1,49.2,18.3c12.5,12.4,18.7,28.8,18.7,49.2c0,20.6-6.2,36.9-18.7,49.1
	c-12.5,12.4-28.9,18.5-49.2,18.5S716.5,270.2,704.1,257.9z M753.3,245c9.2,0,16.5-3.2,22-9.6c5.5-6.3,8.2-15.1,8.2-26.5
	c0-11.1-2.7-20-8.2-26.4c-5.5-6.5-12.8-9.7-22-9.7c-9.2,0-16.5,3.2-22,9.7c-5.5,6.5-8.2,15.3-8.2,26.4c0,11.4,2.7,20.2,8.2,26.5
	C736.8,241.7,744.1,245,753.3,245z M825,273.5v-36h37.1v36H825z"/>
<g>
	<path d="M89.7,295.6h34.5V425H85.9l-27.4-46c-7.4-12.5-13.3-23.1-17.8-32c0.6,17.8,0.9,36.8,0.9,56.9V425H7V295.6h38.3l27.4,46
		c6.5,11.1,12.5,21.9,17.8,32.2c-0.6-17.8-0.9-36.8-0.9-57.1V295.6z"/>
	<path d="M244.6,328h-65.8V345h60v30.2h-60v17.4h65.8V425H142.5V295.6h102.1V328z"/>
	<path d="M363.7,295.6V328h-38.2v97h-36.3v-97H251v-32.4H363.7z"/>
	<path d="M513.3,295.6h38L516.4,425h-40.7l-8-38.3c-3.8-18.3-6.7-34-8.7-47.2c-2.3,14.3-5.3,30-8.9,47.2l-8,38.3h-40.7l-34.9-129.4
		h38l8.4,37.3c5.3,23.6,9,40.9,10.9,51.8c2.8-17,6-34.2,9.6-51.8l7.6-37.3h35.8l7.6,37.3c3.6,17.6,6.8,34.8,9.6,51.8
		c2.1-10.9,5.7-28.2,10.9-51.8L513.3,295.6z"/>
	<path d="M569.2,409.4c-12.5-12.1-18.7-28.5-18.7-49.1c0-20.5,6.2-36.9,18.7-49.2c12.6-12.2,29-18.3,49.2-18.3
		c20.2,0,36.6,6.1,49.2,18.3c12.5,12.4,18.7,28.8,18.7,49.2c0,20.6-6.2,36.9-18.7,49.1c-12.5,12.4-28.9,18.5-49.2,18.5
		S581.6,421.7,569.2,409.4z M618.4,396.5c9.2,0,16.5-3.2,22-9.6c5.5-6.3,8.2-15.1,8.2-26.5c0-11.1-2.7-20-8.2-26.4s-12.8-9.7-22-9.7
		c-9.2,0-16.5,3.2-22,9.7c-5.5,6.5-8.2,15.3-8.2,26.4c0,11.4,2.7,20.2,8.2,26.5C601.9,393.3,609.2,396.5,618.4,396.5z"/>
	<path d="M809.3,411.9c0.2,5.3,1.3,9.7,3.3,13.1h-37.4c-1.5-2.8-2.3-7.1-2.5-13.1l-0.5-14.7c-0.2-6.5-1.7-11-4.5-13.4
		c-2.7-2.4-7.1-3.5-13.2-3.5h-18.9V425h-36.3V295.6h63.6c16.5,0,28.7,3.6,36.5,10.7c7.8,7.3,11.6,16.5,11.6,27.6
		c0,6.7-1.7,12.7-5.2,18c-3.5,5.3-8.4,9.4-15,12.4c6.5,2.4,11.1,5.9,13.5,10.5c2.5,4.6,3.9,11.2,4.3,19.8L809.3,411.9z M735.5,353.8
		h21.8c10.8,0,16.2-5,16.2-14.9c0-9.9-5.4-14.9-16.2-14.9h-21.8V353.8z"/>
	<path d="M952,295.6l-50.9,52.9L952,425h-42.9l-33.6-52l-14.7,14.9V425h-36.3V295.6h36.3v51.2l47.2-51.2H952z"/>
</g>
</svg>
